<svg xmlns="http://www.w3.org/2000/svg" viewBox="0 0 200 176.97"><defs><style>.cls-1{fill:#fff}</style></defs><g id="Слой_2" data-name="Слой 2"><g id="Layer_1" data-name="Layer 1"><path class="cls-1" d="M144.71 51.52V19.06h-32.46L93 0l-2.74 2.72 4.19 4.19a1.18 1.18 0 010 1.89L90.26 13a1.17 1.17 0 01-1.88 0l-4.19-4.2-2.72 2.72 7.33 7.33H59.69v4.61a1.43 1.43 0 01-1.47 1.46h-6.07a1.43 1.43 0 01-1.47-1.46v-4.4h-4v100.31h3.77v-4.6a1.44 1.44 0 011.47-1.47H58a1.44 1.44 0 011.47 1.47v4.6h85.23V75l7.54 7.54 2.76-2.75-4-4.19a1.17 1.17 0 010-1.88l4.19-4.4a1.17 1.17 0 011.88 0l3.35 3.35.84.84 2.74-2.72c-5.86-5.87-13.4-13.41-19.27-19.27zm-85 45A1.43 1.43 0 0158.22 98h-6.07a1.43 1.43 0 01-1.47-1.46v-6.91a1.43 1.43 0 011.47-1.46h6.07a1.43 1.43 0 011.47 1.46v6.92zm0-23.88a1.44 1.44 0 01-1.47 1.47h-6.09a1.44 1.44 0 01-1.47-1.47v-6.88a1.44 1.44 0 011.47-1.47h6.07a1.44 1.44 0 011.47 1.47v6.91zm0-23.87a1.43 1.43 0 01-1.47 1.46h-6.09a1.43 1.43 0 01-1.47-1.46v-6.88a1.44 1.44 0 011.47-1.47h6.07a1.44 1.44 0 011.47 1.47v6.91zm51.73-23L107.23 30a1.18 1.18 0 01-1.89 0l-4.81-4.82a1.17 1.17 0 010-1.88l4.18-4.19a1.18 1.18 0 011.89 0l4.82 4.81a1.19 1.19 0 010 1.89zm17 16.75l-4.19 4.19a1.39 1.39 0 01-2.09 0l-4.82-4.81a1.18 1.18 0 010-1.89l4.19-4.19a1.39 1.39 0 012.09 0l4.82 4.82a1.17 1.17 0 010 1.88zm16.75 17L141 63.71a1.18 1.18 0 01-1.88 0l-4.82-4.82a1.18 1.18 0 010-1.89l4.19-4.18a1.18 1.18 0 011.89 0l4.81 4.81a1.18 1.18 0 010 1.89M0 146.81h.42c.84 0 1.67-.42 1.67-2.1v-15.28l-1.25-1.68H0v-.42h5.65l10.48 13.82v-11.72c0-1.05-.63-1.68-1.89-1.68h-.63v-.42h5.24v.42h-.42a1.7 1.7 0 00-1.89 1.47v18.43h-1.25L2.93 130.26v14.66c0 1.68.63 1.89 2.1 1.89h.42v.42H.21v-.42m22.79 0h2.3v-19.06H23v-.42h15.7V133h-.41v-.42c0-2.52-1.89-4.82-5.24-4.82h-3.31v8.8h1.88c1.89 0 2.73-1.05 2.73-3.77v-.42h.41v9h-.41v-.62c0-2.1-1.05-3.77-2.73-3.77h-1.88v9.84h4c4.61 0 5.23-4 5.23-5.45v-.42h.42v6.5H23v-.63m21-19.07v-.42h8.17v.42h-1.7l4.4 13.4 2.3-7.74-1.88-5.66h-2.1v-.42H62v.42h-2.1l4.18 13.4 3.15-10.26a16.89 16.89 0 00.41-2.09c0-.42-.2-1.26-1.88-1.26h-.21v-.42h5.24v.42h-.21c-.84 0-1.68.63-2.31 2.72l-5.65 17.18H62l-4.4-13-4.4 13.41h-.62l-6.71-20.11H44m48.57 6.92h-.42c-.42-2.93-2.93-6.91-6.08-6.91-2.72 0-4.39 2.72-4.39 10.05 0 6.91 1.25 10.06 4.39 10.06 3.56 0 5.66-3.56 6.08-5.87l.21-1.05h.42v6.92h-.42c-.21-.42-.42-1.26-1-1.26-.84 0-2.09 1.67-5.44 1.67-5.45 0-8.8-5-8.8-10.26 0-5 3.56-10.89 9.21-10.89 2.1 0 4 1.47 5 1.47.63 0 .84-.21.84-.84h.42v6.91m5.21 12.57h2.31v-19.06H97.8v-.42h9.01v.42h-2.31v19.06h2.31v.63H97.8v-.63m12.99 0h.42c.83 0 1.67-.42 1.67-2.1v-15.29l-1.26-1.67h-.83v-.42h5.65l10.47 13.82v-11.73c0-1-.63-1.67-1.88-1.67h-.63v-.42h5.24v.42h-.42a1.7 1.7 0 00-1.89 1.47v18.43h-1.25l-13-17.39v14.66c0 1.68.63 1.89 2.09 1.89h.21v.42h-5.23l.63-.42m22.83 0h2.31v-19.06h-2.31v-.42h15.71v5.66h-.42V133c0-2.52-1.88-4.82-5.23-4.82h-3.35V137h1.88c1.89 0 2.72-1.05 2.72-3.77V133h.42v9h-.42v-.63c0-2.09-1-3.77-2.72-3.77h-1.88v9.85h4c4.6 0 5.23-4 5.23-5.45v-.42h.45v6.49h-16.39v-.83m21.16-.01c1.88 0 2.3-1.26 2.3-2.52v-16.54H155v-.42h7.12l4.6 13.82 4.82-13.82h6.7v.42h-2.09v19.06h2.09v.42h-8.79v-.42h2.3v-18.64l-6.49 19.06h-.84l-6.7-19.48v16.13c0 2.3.63 2.72 2.09 2.72h.42v.42h-5.44v-.21m26.99 0h.42c1.05 0 1.47-.84 1.89-1.68l6.49-18.43h.42l7.54 20.11H200v.42h-8.37v-.42h2.3l-2.09-5.87h-5.45l-1.26 4c0 .21-.21.63-.21.84 0 .84.84 1 1.26 1h.82v.42h-5l-.21-.42zm9.64-6.29l-2.52-7.33-2.51 7.33h5M48.8 162.1v-.21h4v.21h-.42a1.16 1.16 0 00-1 .62c-.21.21-.21.63-.21 1.26v4.4a7.76 7.76 0 01-.42 2.51 3.27 3.27 0 01-1.26 1.68 4.71 4.71 0 01-2.72.63 4.75 4.75 0 01-2.72-.63 3.27 3.27 0 01-1.26-1.68 8.65 8.65 0 01-.21-2.72v-4.4c0-.63 0-1.05-.21-1.25a1.07 1.07 0 00-.83-.42h-.42v-.21h4.81v.21h-.62a1.6 1.6 0 00-1.05.42c-.21.2-.21.62-.21 1.25v4.82a4 4 0 00.21 1.46c.21.63.21 1 .42 1.26s.42.63.84.84a3.05 3.05 0 001.46.21 5 5 0 001.89-.42 2.43 2.43 0 001.25-1.26 6.79 6.79 0 00.42-2.51v-4.4c0-.63 0-1.05-.21-1.25a1.6 1.6 0 00-1-.42zm6.7 4.81a3.6 3.6 0 012.5-1.67 1.57 1.57 0 011.05.21c.21.21.63.63.63 1a3.11 3.11 0 01.22 1.55v3.14a1.57 1.57 0 00.21 1.05c0 .21.21.21.21.42s.41.21.83.21v.18h-3.77v-.21h.21c.42 0 .63 0 .63-.21s.21-.21.21-.42v-4c0-.63 0-1.26-.21-1.47a1.08 1.08 0 00-.84-.41 2.87 2.87 0 00-1.88 1v4.82c0 .21.21.21.42.42s.42.21.83.21v.27H53v-.21h.2c.42 0 .63 0 .84-.21a1.57 1.57 0 00.21-1v-4.4c0-.21 0-.42-.21-.42s-.21-.21-.42-.21a.74.74 0 00-.62.21l-.21-.21 2.3-.83h.42zm8.79-1.67v6.91a.73.73 0 01.21.42c0 .21.42.21.63.21v.22h-3.56v-.21c.42 0 .63 0 .84-.21s.21-.21.21-.42.21-.42.21-.84v-4.62c0-.21 0-.21-.21-.41s-.21 0-.42 0a.8.8 0 00-.63.2l-.21-.2 2.31-.84h.62zm-.62-4a.75.75 0 01.62.21.77.77 0 01.21.63.74.74 0 01-.21.62.75.75 0 01-.62.21.77.77 0 01-.63-.21.74.74 0 01-.21-.62.74.74 0 01.84-.84zm7.33 5.67l4.18 4c.63.63 1.26 1.05 1.68 1.47a2 2 0 001.47.42v.2h-5.24v-.21c.42 0 .63 0 .63-.21s.21-.21.21-.42v-.42c0-.21-.21-.21-.42-.63l-3.77-3.77v3.56c0 .63 0 .84.21 1.05 0 .21.21.21.42.42s.42.21.84.21h.41v.21h-5.44v-.21h.42a1.56 1.56 0 001-.42c.21-.21.21-.63.21-1.26v-7.12c0-.63 0-.84-.21-1.05 0-.2-.2-.2-.41-.41s-.42-.21-.84-.21h-.21v-.21H71v.21h-.42a1.59 1.59 0 00-.84.21c-.21 0-.21.21-.42.41s0 .63 0 1.05v3.35c.21 0 .42-.42 1.05-1a36.42 36.42 0 002.93-2.94.76.76 0 00.21-.62c0-.21 0-.21-.21-.42s-.21-.21-.63-.21h-.21v-.21h4.19v.21H76c-.21 0-.42.21-.63.42s-.62.41-1 .83l-1.68 1.68z"/><path class="cls-1" d="M83.14 172.78v.22h-4.81v-.21h.41a1.6 1.6 0 001.05-.42c.21-.21.21-.63.21-1.26v-7.33c0-.63 0-.84-.21-1.05 0-.2-.21-.2-.42-.41s-.42-.21-.83-.21h-.42v-.21h4.81v.21h-.42a1.6 1.6 0 00-1 .42c-.21.2-.21.62-.21 1.25v7.12c0 .63 0 .84.21 1.05 0 .21.21.21.42.42s.41.21.83.21h.42zm10.06-10.89l.2 2.51h-.2a9.1 9.1 0 00-.21-1.05q-.31-.63-.63-.63a9.5 9.5 0 00-1-.2h-1.52v8.37c0 .63 0 1.05.21 1.26a1.6 1.6 0 001 .42h.42v.21h-4.56v-.21h.42a1.6 1.6 0 001-.42c.21-.21.21-.63.21-1.26v-8.37h-1.21a1.64 1.64 0 00-1 .2.66.66 0 00-.62.63c0 .42-.42.63-.42 1.26H85l.21-2.51h8zm11.3 8.16a4.14 4.14 0 01-1.25 2.31 2.57 2.57 0 01-1.89.84 3.37 3.37 0 01-2.3-1 4.15 4.15 0 01-1-2.93 4.5 4.5 0 011-2.93 2.82 2.82 0 012.51-1 2.93 2.93 0 011.89.63 1.24 1.24 0 01.63 1.25c0 .21 0 .42-.21.42s-.42.21-.63.21c-.42 0-.63 0-.63-.21s-.21-.42-.21-.63a1.57 1.57 0 00-.42-.83c.21-.21 0-.21-.42-.21a1.26 1.26 0 00-1.25.62 3.55 3.55 0 00-.63 2.1 4.2 4.2 0 00.63 2.3 2.11 2.11 0 001.67 1.05 1.91 1.91 0 001.47-.63 2.88 2.88 0 00.83-1.46zm4.82-4.81a3.37 3.37 0 012.72 1.25 4 4 0 01.84 2.52 9.17 9.17 0 01-.42 2.09 2.28 2.28 0 01-1.25 1.47 5 5 0 01-1.89.63 3.37 3.37 0 01-2.72-1.26 4 4 0 01-.84-2.51 7.46 7.46 0 01.42-2.1 2.93 2.93 0 011.26-1.46 4.91 4.91 0 011.88-.63zm-.21.63a1.26 1.26 0 00-.84.21c-.21.21-.62.41-.62.83s-.21 1.05-.21 1.68a5.32 5.32 0 00.62 2.72c.42.63 1 1.26 1.68 1.26a1.27 1.27 0 001.26-.63 5.6 5.6 0 00.42-2.3 5.06 5.06 0 00-.84-3.15 1.93 1.93 0 00-1.47-.62zm7.12 1.04c.63-.62.84-.83 1-.83a1.09 1.09 0 01.84-.42c.42 0 .63-.21.83-.21a3 3 0 011.26.42 1.25 1.25 0 01.63 1.25 6.59 6.59 0 011.47-1.25 2.6 2.6 0 011.25-.21 1.57 1.57 0 011 .21c.21.21.63.62.63 1a3.11 3.11 0 01.21 1.47v3.14a1.57 1.57 0 00.21 1 .21.21 0 00.21.21 2 2 0 00.62.21v.21h-3.77V173h.21c.42 0 .63 0 .84-.21.21 0 .21-.21.21-.42v-4c0-.63 0-1-.21-1.26a1.15 1.15 0 00-1-.63 1.24 1.24 0 00-.83.21c-.21.21-.63.42-1 .84v5c0 .21.21.21.42.42s.42.21.84.21v.21h-3.77v-.21c.42 0 .62 0 .83-.21l.42-.42v-4c0-.63 0-1.05-.21-1.26a1.14 1.14 0 00-1-.63 1.26 1.26 0 00-.84.21 2.1 2.1 0 00-1 .84v5c0 .21.21.21.21.42s.42.21.84.21v.21h-3.77v-.21c.42 0 .63 0 .63-.21s.21-.21.21-.42.21-.42.21-.84v-4.61c0-.21 0-.21-.21-.42s-.21 0-.42 0a.77.77 0 00-.63.21l-.21-.21 2.3-.83h.31v.83z"/><path class="cls-1" d="M126.49 166.29l2.31-.84h.2v1.67a9 9 0 011.25-1.46 1.54 1.54 0 011.26-.42 2 2 0 011.89.84 3.87 3.87 0 01.83 2.72 5.21 5.21 0 01-1 3.14 3.37 3.37 0 01-2.31 1.05 1.57 1.57 0 01-1-.21c-.2 0-.41-.21-.83-.42v3.35c0 .21.21.21.42.42s.41.21.83.21v.21h-4v-.21h.21a1.26 1.26 0 00.84-.21l.21-.21v-9l-.21-.21h-.42c-.21 0-.21 0-.42.21zm2.73 1.25v4c0 .42.21.63.62.84s.63.42 1 .42a1.27 1.27 0 001.26-.63 3.76 3.76 0 00.63-2.3 3.87 3.87 0 00-.84-2.73 1.82 1.82 0 00-1.26-.63 1.59 1.59 0 00-.84.21 3.4 3.4 0 01-.57.82zm10.47 4.4c-.84.63-1.26.84-1.47 1.05a1.26 1.26 0 01-.84.21 1.49 1.49 0 01-1.25-.63 3 3 0 01-.42-1.47 1.89 1.89 0 01.21-1c.21-.41.63-.62 1.25-1s1.47-.63 2.73-1.26v-.21a2 2 0 00-.42-1.46c-.21-.21-.84-.21-1.26-.21s-.63 0-.84.21a.75.75 0 00-.21.62v.42a.8.8 0 01-.2.63c-.21.21-.21.21-.42.21s-.42 0-.42-.21-.21-.42-.21-.63a1.8 1.8 0 01.63-1.25 3.11 3.11 0 012.09-.63 4 4 0 011.68.42c.42.21.62.42.62.83a7.45 7.45 0 01.21 1.47v3.77c0 .21 0 .21.21.42s.21 0 .21 0h.21q.32 0 .63-.63v.42c-.63.84-1.26 1.26-1.67 1.26a.77.77 0 01-.63-.21 1.6 1.6 0 01-.42-1.14zm0-.63v-2.93a4.19 4.19 0 01-1.69.62c-.42.21-.84.42-.84.84s-.2.62-.2.83c0 .42.2.63.41 1s.42.42.84.42a2.64 2.64 0 001.48-.78zm5.44-4.4a3.61 3.61 0 012.52-1.67 1.56 1.56 0 011 .21c.21.21.63.63.63 1a3.11 3.11 0 01.21 1.47v3.14a1.57 1.57 0 00.21 1.05c0 .21.21.21.21.42s.42.21.84.21v.26H147v-.21h.21c.42 0 .63 0 .63-.21s.2-.21.2-.42v-4a2.82 2.82 0 00-.2-1.47 1.08 1.08 0 00-.84-.41 2.88 2.88 0 00-1.89 1v4.82c0 .21.21.21.42.42s.42.21.84.21v.27h-3.77v-.21h.21c.42 0 .63 0 .84-.21a1.57 1.57 0 00.21-1v-4.4c0-.21 0-.42-.21-.42s-.21-.21-.42-.21a.77.77 0 00-.63.21l-.21-.21 2.3-.83h.42v1.25zm5.66-1.46h3.56v.42h-.21a.77.77 0 00-.63.21c-.21.21-.21.21-.21.41a1.59 1.59 0 00.21.84l1.88 3.77 1.68-4.19c0-.21.21-.42.21-.62v-.21l-.21-.21h-.42v-.21h2.51v.21c-.2 0-.41 0-.41.21s-.21.21-.42.41a.92.92 0 00-.21.63l-3.12 7.54a3.27 3.27 0 01-1.26 1.68c-.63.42-.84.63-1.47.63-.42 0-.62 0-.83-.21a1 1 0 010-1.26.75.75 0 01.62-.21 1.59 1.59 0 01.84.21.73.73 0 01.42.21.77.77 0 00.63-.21 2.24 2.24 0 00.63-1.05l.63-1.25-2.73-5.66c0-.21-.21-.42-.42-.63s-.21-.42-.41-.42-.42-.2-.63-.2v-.84z"/></g></g></svg>